<svg xmlns="http://www.w3.org/2000/svg" width="800" height="600" fill="none">
  <rect width="800" height="600" fill="#1a1a1a" rx="8"/>
  
  <!-- Background grid pattern -->
  <defs>
    <pattern id="grid" width="40" height="40" patternUnits="userSpaceOnUse">
      <path d="M 40 0 L 0 0 0 40" fill="none" stroke="#333" stroke-width="1"/>
    </pattern>
  </defs>
  <rect width="800" height="600" fill="url(#grid)"/>
  
  <!-- Alert Dashboard -->
  <rect x="50" y="50" width="700" height="500" fill="#2a2a2a" rx="12" stroke="#444" stroke-width="2"/>
  
  <!-- Header -->
  <rect x="50" y="50" width="700" height="60" fill="#333" rx="12"/>
  <text x="80" y="85" fill="white" font-family="Arial" font-size="16" font-weight="bold">Real-Time Alert Center</text>
  
  <!-- Status indicator -->
  <circle cx="720" cy="80" r="8" fill="#22c55e"/>
  <text x="735" y="85" fill="#22c55e" font-family="Arial" font-size="12">Live</text>
  
  <!-- Alert cards -->
  <!-- High Priority Alert -->
  <rect x="80" y="130" width="640" height="80" fill="#3a1e1e" rx="8" stroke="#ef4444" stroke-width="2"/>
  <circle cx="100" cy="150" r="8" fill="#ef4444"/>
  <text x="120" y="155" fill="white" font-family="Arial" font-size="14" font-weight="bold">🚨 High Priority Alert</text>
  <text x="120" y="175" fill="white" font-family="Arial" font-size="12">Large whale movement detected: $2.4M transferred to known mixer</text>
  <text x="120" y="195" fill="#ef4444" font-family="Arial" font-size="10">Wallet: 0x742d35... • 2 minutes ago</text>
  <Button x="600" y="150" width="100" height="30" fill="#ef4444" rx="4"/>
  <text x="650" y="170" fill="white" font-family="Arial" font-size="10" text-anchor="middle">Investigate</text>
  
  <!-- Medium Priority Alert -->
  <rect x="80" y="230" width="640" height="80" fill="#3a3a1e" rx="8" stroke="#eab308" stroke-width="2"/>
  <circle cx="100" cy="250" r="8" fill="#eab308"/>
  <text x="120" y="255" fill="white" font-family="Arial" font-size="14" font-weight="bold">⚠️ Suspicious Activity</text>
  <text x="120" y="275" fill="white" font-family="Arial" font-size="12">MEV bot detected with 15 sandwich attacks in last hour</text>
  <text x="120" y="295" fill="#eab308" font-family="Arial" font-size="10">Bot: 0x8f2a3d... • 15 minutes ago</text>
  <Button x="600" y="250" width="100" height="30" fill="#eab308" rx="4"/>
  <text x="650" y="270" fill="white" font-family="Arial" font-size="10" text-anchor="middle">Review</text>
  
  <!-- Low Priority Alert -->
  <rect x="80" y="330" width="640" height="80" fill="#1e3a2a" rx="8" stroke="#22c55e" stroke-width="2"/>
  <circle cx="100" cy="350" r="8" fill="#22c55e"/>
  <text x="120" y="355" fill="white" font-family="Arial" font-size="14" font-weight="bold">ℹ️ New Entity Detected</text>
  <text x="120" y="375" fill="white" font-family="Arial" font-size="12">Exchange wallet identified with 98% confidence</text>
  <text x="120" y="395" fill="#22c55e" font-family="Arial" font-size="10">Exchange: 0x1a2b3c... • 1 hour ago</text>
  <Button x="600" y="350" width="100" height="30" fill="#22c55e" rx="4"/>
  <text x="650" y="370" fill="white" font-family="Arial" font-size="10" text-anchor="middle">View</text>
  
  <!-- Alert Settings Panel -->
  <rect x="80" y="430" width="640" height="100" fill="#1e1e1e" rx="8" stroke="#444" stroke-width="1"/>
  <text x="100" y="455" fill="#22c55e" font-family="Arial" font-size="14" font-weight="bold">Active Alert Rules:</text>
  
  <!-- Alert rules -->
  <rect x="100" y="470" width="180" height="40" fill="#1e3a2a" rx="4" stroke="#22c55e" stroke-width="1"/>
  <text x="110" y="485" fill="white" font-family="Arial" font-size="10">Whale Movement</text>
  <text x="110" y="500" fill="#22c55e" font-family="Arial" font-size="8">> $1M</text>
  
  <rect x="300" y="470" width="180" height="40" fill="#3a1e1e" rx="4" stroke="#ef4444" stroke-width="1"/>
  <text x="310" y="485" fill="white" font-family="Arial" font-size="10">MEV Detection</text>
  <text x="310" y="500" fill="#ef4444" font-family="Arial" font-size="8">> 5 attacks</text>
  
  <rect x="500" y="470" width="180" height="40" fill="#3a3a1e" rx="4" stroke="#eab308" stroke-width="1"/>
  <text x="510" y="485" fill="white" font-family="Arial" font-size="10">Mixer Activity</text>
  <text x="510" y="500" fill="#eab308" font-family="Arial" font-size="8">Any deposit</text>
  
  <!-- Stats -->
  <rect x="700" y="470" width="20" height="40" fill="#22c55e" rx="2"/>
  <text x="710" y="490" fill="white" font-family="Arial" font-size="8" text-anchor="middle">3</text>
  <text x="710" y="500" fill="white" font-family="Arial" font-size="6" text-anchor="middle">Active</text>
</svg> 