<svg xmlns="http://www.w3.org/2000/svg" xmlns:xlink="http://www.w3.org/1999/xlink" width="500" zoomAndPan="magnify" viewBox="0 0 375 374.999991" height="500" preserveAspectRatio="xMidYMid meet" version="1.2"><defs><clipPath id="64a00a7215"><path d="M 145 145 L 230 145 L 230 230 L 145 230 Z M 145 145 "/></clipPath><clipPath id="c2805d03db"><path d="M 187.492188 145.261719 L 229.734375 187.5 L 187.492188 229.742188 L 145.253906 187.5 Z M 187.492188 145.261719 "/></clipPath><clipPath id="c11f66f9ce"><path d="M 193 193 L 278 193 L 278 278 L 193 278 Z M 193 193 "/></clipPath><clipPath id="a7bdbf12bc"><path d="M 235.566406 193.34375 L 277.808594 235.585938 L 235.890625 277.5 L 193.652344 235.261719 Z M 235.566406 193.34375 "/></clipPath><clipPath id="51810cc143"><path d="M 97 97 L 182 97 L 182 182 L 97 182 Z M 97 97 "/></clipPath><clipPath id="47efecc8da"><path d="M 139.253906 97.328125 L 181.492188 139.570312 L 139.402344 181.660156 L 97.160156 139.417969 Z M 139.253906 97.328125 "/></clipPath><clipPath id="6a9f272961"><path d="M 97.015625 97.175781 L 139.253906 97.175781 L 139.253906 277.824219 L 97.015625 277.824219 Z M 97.015625 97.175781 "/></clipPath><clipPath id="79c6a02751"><path d="M 235.738281 105.898438 L 277.976562 105.898438 L 277.976562 269.101562 L 235.738281 269.101562 Z M 235.738281 105.898438 "/></clipPath><clipPath id="a56091a208"><path d="M 97.015625 54.9375 L 181.765625 54.9375 L 181.765625 139.6875 L 97.015625 139.6875 Z M 97.015625 54.9375 "/></clipPath><clipPath id="12e6860c95"><path d="M 193.96875 235.898438 L 277.96875 235.898438 L 277.96875 319.898438 L 193.96875 319.898438 Z M 193.96875 235.898438 "/></clipPath></defs><g id="499e3acfbb"><g clip-rule="nonzero" clip-path="url(#64a00a7215)"><g clip-rule="nonzero" clip-path="url(#c2805d03db)"><path style=" stroke:none;fill-rule:nonzero;fill:#ffffff;fill-opacity:1;" d="M 187.492188 145.261719 L 229.734375 187.5 L 187.492188 229.742188 L 145.253906 187.5 Z M 187.492188 145.261719 "/></g></g><g clip-rule="nonzero" clip-path="url(#c11f66f9ce)"><g clip-rule="nonzero" clip-path="url(#a7bdbf12bc)"><path style=" stroke:none;fill-rule:nonzero;fill:#ffffff;fill-opacity:1;" d="M 235.566406 193.34375 L 277.8125 235.585938 L 235.894531 277.503906 L 193.652344 235.261719 Z M 235.566406 193.34375 "/></g></g><g clip-rule="nonzero" clip-path="url(#51810cc143)"><g clip-rule="nonzero" clip-path="url(#47efecc8da)"><path style=" stroke:none;fill-rule:nonzero;fill:#ffffff;fill-opacity:1;" d="M 139.253906 97.328125 L 181.507812 139.582031 L 139.417969 181.675781 L 97.160156 139.417969 Z M 139.253906 97.328125 "/></g></g><g clip-rule="nonzero" clip-path="url(#6a9f272961)"><path style=" stroke:none;fill-rule:nonzero;fill:#ffffff;fill-opacity:1;" d="M 97.015625 97.175781 L 139.253906 97.175781 L 139.253906 277.855469 L 97.015625 277.855469 Z M 97.015625 97.175781 "/></g><g clip-rule="nonzero" clip-path="url(#79c6a02751)"><path style=" stroke:none;fill-rule:nonzero;fill:#ffffff;fill-opacity:1;" d="M 235.738281 105.898438 L 277.976562 105.898438 L 277.976562 269.089844 L 235.738281 269.089844 Z M 235.738281 105.898438 "/></g><g clip-rule="nonzero" clip-path="url(#a56091a208)"><path style=" stroke:none;fill-rule:nonzero;fill:#ffffff;fill-opacity:1;" d="M 181.496094 139.417969 L 97.015625 139.417969 L 97.015625 54.9375 Z M 181.496094 139.417969 "/></g><g clip-rule="nonzero" clip-path="url(#12e6860c95)"><path style=" stroke:none;fill-rule:nonzero;fill:#ffffff;fill-opacity:1;" d="M 193.96875 235.898438 L 277.96875 235.898438 L 277.96875 319.898438 Z M 193.96875 235.898438 "/></g></g></svg>